HIERARCHY
ROOT Hips
{
	OFFSET	0.000000	0.000000	0.000000
	CHANNELS 6 Xposition Yposition Zposition Zrotation Xrotation Yrotation
	JOINT LeftUpLeg
	{
		OFFSET	12.811937	-7.635976	0.557276
		CHANNELS 3 Zrotation Xrotation Yrotation
		JOINT LeftLeg
		{
			OFFSET	-0.429270	-42.206163	-1.204951
			CHANNELS 3 Zrotation Xrotation Yrotation
			JOINT LeftFoot
			{
				OFFSET	-2.112259	-42.464481	-3.973220
				CHANNELS 3 Zrotation Xrotation Yrotation
				JOINT LeftFootHeel
				{
					OFFSET	0.387196	-5.329707	-3.419729
					CHANNELS 3 Zrotation Xrotation Yrotation
					End Site
					{
						OFFSET	0.327567	-0.000003	16.505428
					}
				}
			}
		}
	}
	JOINT RightUpLeg
	{
		OFFSET	-12.811937	-7.635976	0.557276
		CHANNELS 3 Zrotation Xrotation Yrotation
		JOINT RightLeg
		{
			OFFSET	0.429270	-42.206163	-1.204951
			CHANNELS 3 Zrotation Xrotation Yrotation
			JOINT RightFoot
			{
				OFFSET	2.112259	-42.464481	-3.973220
				CHANNELS 3 Zrotation Xrotation Yrotation
				JOINT RightFootHeel
				{
					OFFSET	-0.387198	-5.329707	-3.419729
					CHANNELS 3 Zrotation Xrotation Yrotation
					End Site
					{
						OFFSET	-0.327566	-0.000003	16.505428
					}
				}
			}
		}
	}
	JOINT Spine
	{
		OFFSET	0.000000	13.731316	-1.007646
		CHANNELS 3 Zrotation Xrotation Yrotation
		JOINT Spine1
		{
			OFFSET	0.000000	12.091746	-0.604589
			CHANNELS 3 Zrotation Xrotation Yrotation
			JOINT LeftShoulder
			{
				OFFSET	5.746115	20.990027	-0.833816
				CHANNELS 3 Zrotation Xrotation Yrotation
				JOINT LeftArm
				{
					OFFSET	10.881538	-1.359258	0.219250
					CHANNELS 3 Zrotation Xrotation Yrotation
					JOINT LeftForeArm
					{
						OFFSET	4.390314	-31.537147	0.202818
						CHANNELS 3 Zrotation Xrotation Yrotation
						JOINT LeftHand
						{
							OFFSET	3.168650	-24.865025	5.373370
							CHANNELS 3 Zrotation Xrotation Yrotation
							End Site
							{
								OFFSET	1.457528	-10.806075	2.170267
							}
						}
					}
				}
			}
			JOINT RightShoulder
			{
				OFFSET	-5.746115	20.990027	-0.833816
				CHANNELS 3 Zrotation Xrotation Yrotation
				JOINT RightArm
				{
					OFFSET	-10.881538	-1.359258	0.219250
					CHANNELS 3 Zrotation Xrotation Yrotation
					JOINT RightForeArm
					{
						OFFSET	-4.390314	-31.537147	0.202818
						CHANNELS 3 Zrotation Xrotation Yrotation
						JOINT RightHand
						{
							OFFSET	-3.168650	-24.865025	5.373370
							CHANNELS 3 Zrotation Xrotation Yrotation
							End Site
							{
								OFFSET	-1.457528	-10.806075	2.170267
							}
						}
					}
				}
			}
			JOINT Neck
			{
				OFFSET	0.000000	27.075639	0.680489
				CHANNELS 3 Zrotation Xrotation Yrotation
				JOINT Head
				{
					OFFSET	0.000000	12.391288	1.239129
					CHANNELS 3 Zrotation Xrotation Yrotation
					End Site
					{
						OFFSET	0.000000	13.818692	-0.105853
					}
				}
			}
		}
	}
}
MOTION
Frames:    16
Frame Time: 0.016667
0.000000	100.583210	0.000000	1.446867	-1.329226	89.401123	-0.466818	3.611587	-6.747639	-0.877478	-2.233519	-0.413025	1.227670	1.821584	0.395595	0.	0.	0.	-0.287849	1.702056	-4.528999	4.273360	-0.362223	-6.005889	-1.306979	-0.218471	-8.836191	0.	0.	0.	-0.000000	-0.000000	-0.000000	1.057793	3.872477	3.851900	0.062027	2.003930	-9.470781	2.094265	-4.625517	-7.311460	-7.006217	-6.826886	-8.135969	8.110178	4.351501	-23.185671	1.807860	1.531208	-12.271585	-1.742467	-3.651474	10.070212	3.645064	-7.911183	5.437941	1.364906	4.681486	7.592548	1.778620	2.583384	-6.040318	-0.142754	-0.817850	-1.056671	
-0.000784	100.583287	0.005172	1.422257	-1.325206	89.370674	-0.474207	3.583204	-6.748320	-0.881113	-2.228764	-0.461042	1.263767	1.836491	0.478622	0.	0.	0.	-0.294724	1.680160	-4.517898	4.304850	-0.413114	-5.927767	-1.341074	-0.170808	-8.894146	0.	0.	0.	-0.000000	0.000001	-0.000000	1.043499	3.937883	3.831424	0.072816	2.007340	-9.421786	2.048767	-4.516966	-7.191809	-6.756153	-6.418808	-8.134315	8.557973	4.230466	-22.757748	1.801435	1.528654	-12.219970	-1.737247	-3.656721	10.117645	3.594000	-7.901755	5.413319	1.464479	4.583370	7.564718	1.723161	2.520816	-5.979341	-0.162134	-0.960965	-1.126277	
0.000293	100.575642	0.017254	1.408446	-1.286485	89.348885	-0.515931	3.565087	-6.758922	-0.885071	-2.223122	-0.537340	1.300142	1.851775	0.591311	0.	0.	0.	-0.313356	1.635217	-4.377393	4.282019	-0.441044	-5.973524	-1.347142	-0.121604	-8.968767	0.	0.	0.	-0.000000	0.000000	-0.000001	1.011401	4.009487	3.798920	0.069319	2.015059	-9.364842	1.995658	-4.397262	-7.063431	-6.540126	-6.010628	-8.098525	9.315800	4.176651	-22.628151	1.780023	1.526553	-12.164104	-1.732874	-3.663079	10.159986	3.531085	-7.877976	5.461652	1.557133	4.500432	7.468931	1.638609	2.469402	-5.914816	-0.154739	-1.085458	-1.190626	
-0.001140	100.555750	0.040888	1.415271	-1.182954	89.340332	-0.628816	3.553968	-6.842046	-0.886532	-2.202634	-0.660580	1.345190	1.880340	0.817407	0.	0.	0.	-0.347784	1.566856	-3.893965	4.228588	-0.460628	-6.255976	-1.380881	-0.087054	-9.170562	0.	0.	0.	-0.000000	-0.000000	0.000001	0.919024	4.141008	3.722521	0.065863	2.026986	-9.269650	1.900880	-4.184949	-6.847205	-6.233341	-5.431275	-7.915162	10.769789	4.088347	-22.789085	1.762715	1.500512	-12.051354	-1.745888	-3.657397	10.194705	3.464662	-7.868488	5.526297	1.599036	4.463143	7.388880	1.520346	2.390704	-5.815844	-0.148161	-1.223487	-1.247884	
-0.002953	100.544695	0.057995	1.420667	-1.099550	89.334145	-0.722201	3.539988	-6.928529	-0.884555	-2.180932	-0.755670	1.353635	1.920688	1.016852	0.	0.	0.	-0.379085	1.522735	-3.512908	4.203358	-0.493523	-6.445278	-1.435488	-0.071406	-9.360520	0.	0.	0.	0.000000	0.000000	-0.000001	0.842987	4.238146	3.668510	0.062538	2.019649	-9.201830	1.831238	-4.023920	-6.663913	-6.035809	-5.081892	-7.748661	11.622482	4.060778	-22.864561	1.757178	1.455239	-11.959675	-1.759656	-3.648723	10.186860	3.450155	-7.897255	5.571530	1.597149	4.497529	7.360281	1.450364	2.325040	-5.747409	-0.115594	-1.265223	-1.236721	
-0.001174	100.547679	0.059316	1.420667	-1.099550	89.334145	-0.722201	3.539988	-6.928529	-0.884555	-2.180932	-0.755670	1.364469	1.940364	1.017137	0.	0.	0.	-0.379085	1.522735	-3.512908	4.203358	-0.493523	-6.445278	-1.435488	-0.071406	-9.360520	0.	0.	0.	0.000000	0.000000	-0.000001	0.846934	4.283912	3.639265	0.054681	1.974256	-9.172816	1.831238	-4.023920	-6.663913	-6.035809	-5.081892	-7.748661	11.622482	4.060778	-22.864561	1.749574	1.410724	-11.929338	-1.759656	-3.648723	10.186860	3.450155	-7.897255	5.571530	1.593794	4.513565	7.367790	1.411433	2.294519	-5.713686	-0.083539	-1.276232	-1.239122	
-0.002482	100.526237	0.077202	1.427550	-0.994846	89.324265	-0.833716	3.533042	-7.003372	-0.889550	-2.165312	-0.837568	1.382336	1.954576	1.193568	0.	0.	0.	-0.428901	1.521706	-2.975655	4.212650	-0.637194	-6.685309	-1.522377	0.005297	-9.652617	0.	0.	0.	0.000000	-0.000000	-0.000000	0.749137	4.369818	3.593567	0.061896	1.984824	-9.083658	1.711111	-3.762133	-6.342183	-5.715226	-4.567515	-7.500478	12.451375	3.988702	-22.763420	1.743877	1.371570	-11.846684	-1.764897	-3.664007	10.164616	3.437137	-7.898028	5.666127	1.610747	4.486692	7.268801	1.367228	2.229790	-5.653260	-0.053223	-1.286651	-1.241385	
-0.000804	100.518940	0.083357	1.429881	-0.959060	89.320206	-0.870282	3.533814	-7.008768	-0.893600	-2.163018	-0.883245	1.390880	1.961076	1.249358	0.	0.	0.	-0.445599	1.556315	-2.682323	4.239302	-0.769107	-6.865563	-1.585170	0.039899	-9.766580	0.	0.	0.	-0.000000	-0.000000	0.000000	0.719992	4.442952	3.550358	0.065112	1.944459	-8.997949	1.624933	-3.582943	-6.125146	-5.487737	-4.233614	-7.360916	12.633227	3.945125	-22.509031	1.738619	1.310305	-11.794585	-1.780106	-3.631084	10.183298	3.440126	-7.930693	5.685003	1.602771	4.483671	7.226075	1.340700	2.166396	-5.603281	-0.039433	-1.291404	-1.242414	
0.013227	100.524454	0.087825	1.356017	-0.954471	89.317924	-0.874493	3.458834	-7.018372	-0.895761	-2.161241	-0.901509	1.421701	2.000339	1.280969	0.	0.	0.	-0.461342	1.591642	-2.449302	4.311910	-0.996057	-6.973080	-1.664414	0.085275	-9.892451	0.	0.	0.	0.000000	0.000000	-0.000001	0.723331	4.455948	3.541300	0.076105	1.901692	-8.931486	1.536025	-3.347816	-5.830802	-5.171393	-3.761859	-7.166720	12.421412	3.876116	-22.061594	1.777910	1.265965	-11.769460	-1.787977	-3.656938	10.182708	3.457873	-7.918037	5.696373	1.521856	4.485589	7.249093	1.295547	2.102506	-5.587190	-0.042388	-1.294251	-1.291057	
0.014435	100.526382	0.088966	1.356017	-0.954471	89.317924	-0.874493	3.458834	-7.018372	-0.895761	-2.161241	-0.901509	1.429295	2.013357	1.282270	0.	0.	0.	-0.468383	1.628626	-2.402589	4.319733	-1.036107	-7.016708	-1.664414	0.085275	-9.892451	0.	0.	0.	0.000000	0.000000	-0.000001	0.725429	4.480452	3.530192	0.072144	1.877377	-8.920504	1.536025	-3.347816	-5.830802	-5.091965	-3.544337	-6.990167	12.377352	3.618922	-22.180893	1.774055	1.241987	-11.757764	-1.752682	-3.653817	10.193630	3.438850	-7.898674	5.719336	1.484744	4.467416	7.261616	1.297371	2.092430	-5.583490	-0.046665	-1.308757	-1.283480	
0.031272	100.530267	0.091224	1.263265	-0.948706	89.315079	-0.877846	3.369705	-6.939401	-0.899592	-2.163811	-0.980773	1.439644	2.038062	1.287196	0.	0.	0.	-0.492272	1.606626	-2.363847	4.379403	-1.162441	-6.942576	-1.712730	0.112422	-10.003104	0.	0.	0.	0.000000	0.000000	-0.000000	0.761042	4.441484	3.485632	0.067193	1.848981	-8.847605	1.476322	-3.114342	-5.546138	-4.911247	-3.383280	-7.009910	11.854515	3.842056	-21.848173	1.798223	1.217815	-11.713623	-1.782881	-3.685915	10.224867	3.432768	-7.863515	5.771418	1.405276	4.419703	7.285190	1.264414	2.073687	-5.567501	-0.183938	-1.214782	-1.378115	
0.036925	100.533087	0.093672	1.251647	-0.947984	89.314720	-0.876840	3.362185	-6.866745	-0.902468	-2.167205	-1.044525	1.442667	2.055110	1.289418	0.	0.	0.	-0.503302	1.631317	-2.354445	4.397152	-1.205077	-6.928967	-1.719347	0.118440	-10.022701	0.	0.	0.	-0.000000	0.000001	-0.000001	0.832652	4.489170	3.436093	0.038834	1.783968	-8.820122	1.427905	-2.937809	-5.329257	-4.768971	-3.209023	-6.967948	11.434393	3.873006	-21.918531	1.774069	1.163569	-11.682114	-1.802558	-3.686587	10.284523	3.411421	-7.850095	5.770536	1.343770	4.395199	7.353755	1.193358	2.035463	-5.537213	-0.301308	-1.143208	-1.471136	
0.035139	100.534821	0.097715	1.226619	-0.949578	89.290787	-0.874451	3.341357	-6.780603	-0.898190	-2.173027	-1.048045	1.443971	2.062138	1.243014	0.	0.	0.	-0.507925	1.624646	-2.333841	4.403779	-1.230234	-6.934204	-1.720156	0.125258	-10.012986	0.	0.	0.	0.000000	0.000000	-0.000000	0.853569	4.534621	3.411439	0.067388	1.703761	-8.791312	1.394442	-2.762151	-5.133588	-4.676166	-3.096391	-6.962629	11.061740	3.925282	-22.143597	1.802235	1.095622	-11.646753	-1.847099	-3.694706	10.309232	3.441622	-7.814259	5.833055	1.304989	4.366889	7.387538	1.179271	2.002200	-5.530712	-0.444702	-1.096090	-1.548149	
0.029317	100.536546	0.100748	1.219682	-0.953096	89.261551	-0.871485	3.336326	-6.731829	-0.894413	-2.176562	-1.023091	1.446916	2.068440	1.210490	0.	0.	0.	-0.509345	1.622483	-2.337570	4.393066	-1.234972	-6.979712	-1.708615	0.122377	-9.933873	0.	0.	0.	0.000000	0.000000	-0.000001	0.861380	4.587868	3.406804	0.118221	1.631712	-8.776855	1.366611	-2.589345	-4.977564	-4.609277	-3.034720	-7.024310	10.729032	3.982997	-22.386919	1.852947	1.036811	-11.626856	-1.906492	-3.706871	10.323140	3.488322	-7.789052	5.855147	1.286966	4.356906	7.429800	1.167534	1.953501	-5.560410	-0.596671	-1.040450	-1.611441	
0.028459	100.537544	0.103759	1.219845	-0.954805	89.249100	-0.869100	3.339392	-6.693174	-0.894568	-2.179892	-1.031587	1.451954	2.074229	1.204118	0.	0.	0.	-0.512903	1.626736	-2.370453	4.387862	-1.236627	-6.999895	-1.712199	0.104676	-9.865335	0.	0.	0.	-0.000000	0.000000	0.000000	0.897309	4.612551	3.417051	0.147614	1.595848	-8.797644	1.341592	-2.421972	-4.873393	-4.566761	-3.004357	-7.111077	10.437950	4.026728	-22.594879	1.877586	1.014035	-11.640950	-1.920484	-3.704590	10.406331	3.481580	-7.775922	5.795569	1.284980	4.341005	7.440258	1.125222	1.930781	-5.632580	-0.746639	-0.971408	-1.670546	
0.037062	100.537883	0.110933	1.219845	-0.954805	89.249100	-0.862701	3.350871	-6.673417	-0.899415	-2.191974	-1.043000	1.457353	2.079739	1.206137	0.	0.	0.	-0.515406	1.629797	-2.390383	4.384058	-1.229361	-6.998675	-1.718394	0.081523	-9.842872	0.	0.	0.	-0.000000	0.000000	0.000000	0.964635	4.607477	3.414286	0.143700	1.591856	-8.819966	1.318707	-2.260291	-4.834383	-4.532836	-3.007800	-7.190437	10.176832	4.054844	-22.749214	1.870478	1.022456	-11.658854	-1.948773	-3.712391	10.436806	3.492526	-7.755605	5.787259	1.289799	4.306305	7.402364	1.052449	1.939227	-5.711904	-0.878981	-0.907155	-1.728852	
